Coordinates
version=1
nRows=19
nColumns=24
inDegrees=yes

Units are S.I. units (second, meters, Newtons, ...)
Angles are in degrees.

endheader
time	pelvis_tilt	pelvis_list	pelvis_rotation	pelvis_tx	pelvis_ty	pelvis_tz	hip_flexion_r	hip_adduction_r	hip_rotation_r	knee_angle_r	ankle_angle_r	subtalar_angle_r	mtp_angle_r	hip_flexion_l	hip_adduction_l	hip_rotation_l	knee_angle_l	ankle_angle_l	subtalar_angle_l	mtp_angle_l	lumbar_extension	lumbar_bending	lumbar_rotation
      3.56000000	     45.86587205	     -4.73427624	     -1.28463441	      0.57550678	      1.08521771	     -0.34045264	     26.59034471	     -6.26805476	     -8.17318947	    -74.20416823	    -25.75674351	    -18.89811143	      0.00000000	     26.01904249	    -19.23033990	     -5.64714023	    -99.47678542	    -35.14158924	      4.33572128	      0.00000000	      0.00000000	      0.00000000	      0.00000000
      3.57000000	     45.84000716	     -4.77668680	     -1.33292263	      0.57563820	      1.08500346	     -0.34030714	     26.67354765	     -6.22676252	     -8.21462354	    -74.33096887	    -25.77391809	    -18.92052642	      0.00000000	     26.14369164	    -19.47220366	     -5.49079596	   -101.95012747	    -34.92971452	      4.10436400	      0.00000000	      0.00000000	      0.00000000	      0.00000000
      3.58000000	     45.81359388	     -4.80907355	     -1.38003334	      0.57576027	      1.08475547	     -0.34018320	     26.75696502	     -6.19725806	     -8.24205319	    -74.45853705	    -25.79112265	    -18.93421310	      0.00000000	     26.27197380	    -19.67877361	     -5.31310543	   -104.28128255	    -34.78811006	      3.98029244	      0.00000000	      0.00000000	      0.00000000	      0.00000000
      3.59000000	     45.78868721	     -4.83377690	     -1.41907448	      0.57586727	      1.08449054	     -0.34009510	     26.83727467	     -6.17942328	     -8.25738341	    -74.58288356	    -25.79606360	    -18.93524795	      0.00000000	     26.40463234	    -19.84638051	     -5.11699056	   -106.46419056	    -34.70446715	      3.95978304	      0.00000000	      0.00000000	      0.00000000	      0.00000000
      3.60000000	     45.76798014	     -4.85099985	     -1.44653002	      0.57596562	      1.08423217	     -0.34008256	     26.91074590	     -6.17310473	     -8.26265767	    -74.70100702	    -25.78017268	    -18.92172772	      0.00000000	     26.54029033	    -19.97598091	     -4.90460364	   -108.49266799	    -34.65917521	      4.03923162	      0.00000000	      0.00000000	      0.00000000	      0.00000000
      3.61000000	     45.75339998	     -4.86020318	     -1.46202868	      0.57606707	      1.08399761	     -0.34015263	     26.97344928	     -6.17787153	     -8.25937548	    -74.81059184	    -25.74068435	    -18.89351659	      0.00000000	     26.67489033	    -20.07228784	     -4.67736873	   -110.36085946	    -34.63164516	      4.21379828	      0.00000000	      0.00000000	      0.00000000	      0.00000000
      3.62000000	     45.74564000	     -4.86164370	     -1.46686448	      0.57617653	      1.08379604	     -0.34027147	     27.02194993	     -6.19227583	     -8.24850956	    -74.90947986	    -25.68079089	    -18.85171846	      0.00000000	     26.80252240	    -20.14218140	     -4.43724658	   -112.06348534	    -34.60535843	      4.47492656	      0.00000000	      0.00000000	      0.00000000	      0.00000000
      3.63000000	     45.74439703	     -4.85644730	     -1.46322035	      0.57628069	      1.08363399	     -0.34040674	     27.05391003	     -6.21344741	     -8.23101571	    -74.99532740	    -25.60815047	    -18.79821795	      0.00000000	     26.91729651	    -20.19345444	     -4.18744011	   -113.59594076	    -34.57077470	      4.80747428	      0.00000000	      0.00000000	      0.00000000	      0.00000000
      3.64000000	     45.74909914	     -4.84635870	     -1.45397554	      0.57636710	      1.08351770	     -0.34055002	     27.06846436	     -6.23761885	     -8.20822192	    -75.06579193	    -25.53245587	    -18.73557700	      0.00000000	     27.01552896	    -20.23371960	     -3.93257669	   -114.95400807	    -34.52588952	      5.18765007	      0.00000000	      0.00000000	      0.00000000	      0.00000000
      3.65000000	     45.75927617	     -4.83370544	     -1.44214274	      0.57644686	      1.08344683	     -0.34070222	     27.06658791	     -6.26123266	     -8.18177209	    -75.11929550	    -25.46290570	    -18.66730681	      0.00000000	     27.09679112	    -20.26945934	     -3.67856596	   -116.13350768	    -34.47472746	      5.58293331	      0.00000000	      0.00000000	      0.00000000	      0.00000000
      3.66000000	     45.77388582	     -4.82099528	     -1.42982020	      0.57653554	      1.08340873	     -0.34085518	     27.05140946	     -6.28182156	     -8.15335494	    -75.15586497	    -25.40634123	    -18.59815803	      0.00000000	     27.16292793	    -20.30546233	     -3.43186749	   -117.13070824	    -34.42446014	      5.95465739	      0.00000000	      0.00000000	      0.00000000	      0.00000000
      3.67000000	     45.79081817	     -4.81000172	     -1.41770129	      0.57662826	      1.08338892	     -0.34099517	     27.02796601	     -6.29827195	     -8.12458768	    -75.17737414	    -25.36650976	    -18.53395703	      0.00000000	     27.21650850	    -20.34468198	     -3.19820730	   -117.94309109	    -34.38210062	      6.26308726	      0.00000000	      0.00000000	      0.00000000	      0.00000000
      3.68000000	     45.80742596	     -4.80130096	     -1.40563289	      0.57670816	      1.08338233	     -0.34111658	     27.00217357	     -6.31066821	     -8.09705797	    -75.18690849	    -25.34436034	    -18.48088560	      0.00000000	     27.26006404	    -20.38809627	     -2.98135779	   -118.56962964	    -34.35170504	      6.47393779	      0.00000000	      0.00000000	      0.00000000	      0.00000000
      3.69000000	     45.82121888	     -4.79471684	     -1.39344666	      0.57676905	      1.08338440	     -0.34122076	     26.97935082	     -6.31989777	     -8.07238562	    -75.18762024	    -25.33893788	    -18.44443473	      0.00000000	     27.29582040	    -20.43440810	     -2.78274047	   -119.01077654	    -34.33279405	      6.56470948	      0.00000000	      0.00000000	      0.00000000	      0.00000000
      3.70000000	     45.83001167	     -4.78980007	     -1.38119563	      0.57681533	      1.08338371	     -0.34130845	     26.96297906	     -6.32710455	     -8.05220918	    -75.18178018	    -25.34845300	    -18.42832931	      0.00000000	     27.32536896	    -20.48030976	     -2.60199179	   -119.26849069	    -34.32038162	      6.52909674	      0.00000000	      0.00000000	      0.00000000	      0.00000000
      3.71000000	     45.83216522	     -4.78601346	     -1.36876691	      0.57684555	      1.08337581	     -0.34138076	     26.95442713	     -6.33325233	     -8.03796325	    -75.17043954	    -25.37110353	    -18.43378730	      0.00000000	     27.34944425	    -20.52156728	     -2.43807526	   -119.34574028	    -34.30650042	      6.37815697	      0.00000000	      0.00000000	      0.00000000	      0.00000000
      3.72000000	     45.82742224	     -4.78297311	     -1.35557957	      0.57685673	      1.08337083	     -0.34143749	     26.95351822	     -6.33894897	     -8.03055733	    -75.15369326	    -25.40536461	    -18.45935925	      0.00000000	     27.36821093	    -20.55416096	     -2.29041288	   -119.24496964	    -34.28257679	      6.13785300	      0.00000000	      0.00000000	      0.00000000	      0.00000000
      3.73000000	     45.81706799	     -4.78040232	     -1.34089404	      0.57685189	      1.08337593	     -0.34147632	     26.95925214	     -6.34450762	     -8.03021288	    -75.13120719	    -25.44975627	    -18.50132255	      0.00000000	     27.38130533	    -20.57504035	     -2.15920889	   -118.96668189	    -34.24176954	      5.84356100	      0.00000000	      0.00000000	      0.00000000	      0.00000000
      3.74000000	     45.80276354	     -4.77778231	     -1.32439472	      0.57682798	      1.08338461	     -0.34149908	     26.97029334	     -6.35019580	     -8.03646619	    -75.10261028	    -25.50232200	    -18.55443479	      0.00000000	     27.38723358	    -20.58245653	     -2.04492179	   -118.50970767	    -34.18055507	      5.53287472	      0.00000000	      0.00000000	      0.00000000	      0.00000000
